<svg width="389" height="576" viewBox="0 0 389 576" fill="none" xmlns="http://www.w3.org/2000/svg">
<path d="M302.169 174.616C274.568 240.48 212.025 225.076 179.727 209.83C147.429 194.584 157.606 185.271 185.207 119.406C212.809 53.5419 261.367 12.5073 293.665 27.7529C325.963 42.9985 329.771 108.751 302.169 174.616Z" fill="black"/>
<path d="M302.169 174.616C274.568 240.48 212.025 225.076 179.727 209.83C147.429 194.584 157.606 185.271 185.207 119.406C212.809 53.5419 261.367 12.5073 293.665 27.7529C325.963 42.9985 329.771 108.751 302.169 174.616Z" fill="black"/>
<path d="M302.169 174.616C274.568 240.48 212.025 225.076 179.727 209.83C147.429 194.584 157.606 185.271 185.207 119.406C212.809 53.5419 261.367 12.5073 293.665 27.7529C325.963 42.9985 329.771 108.751 302.169 174.616Z" fill="black"/>
<path d="M208.021 176.862C238.756 241.145 231.496 181.967 199.973 198.943C168.451 215.92 163.609 203.027 88.8427 219.457C58.1075 155.175 63.7712 108.184 95.2935 91.2074C126.816 74.231 177.285 112.58 208.021 176.862Z" fill="black"/>
<path d="M208.021 176.862C238.756 241.145 231.496 181.967 199.973 198.943C168.451 215.92 163.609 203.027 88.8427 219.457C58.1075 155.175 63.7712 108.184 95.2935 91.2074C126.816 74.231 177.285 112.58 208.021 176.862Z" fill="black"/>
<path d="M208.021 176.862C238.756 241.145 231.496 181.967 199.973 198.943C168.451 215.92 163.609 203.027 88.8427 219.457C58.1075 155.175 63.7712 108.184 95.2935 91.2074C126.816 74.231 177.285 112.58 208.021 176.862Z" fill="black"/>
<path d="M308.053 216.11C347.265 216.11 379.053 247.898 379.053 287.11V566.274H80C40.7878 566.274 9.00003 534.486 9 495.274V216.11H308.053Z" stroke="black" stroke-width="18"/>
<path d="M134.955 292.191V487.631H109.475V292.191H134.955ZM331.705 292.191V315.991H264.225V487.631H238.745V315.991H171.265V292.191H331.705Z" fill="black"/>
</svg>
