<svg width="193" height="32" viewBox="0 0 193 32" fill="none" xmlns="http://www.w3.org/2000/svg">
<path d="M39.034 25L42.047 13.5H45.497L44.83 16.03H46.647C48.602 16.03 49.453 15.524 49.798 14.19C50.212 12.626 49.568 12.35 47.613 12.35H45.566C42.576 12.35 42.116 12.35 43.036 8.9H48.533C51.914 8.9 54.375 9.981 53.248 14.19C52.213 18.169 49.131 19.48 45.75 19.48H43.933L42.484 25H39.034ZM57.5594 25.115C54.1554 25.115 52.0164 22.815 53.5574 16.95C55.0984 11.085 58.4334 8.785 61.8374 8.785C65.2184 8.785 67.3574 11.085 65.8164 16.95C64.2754 22.815 60.9404 25.115 57.5594 25.115ZM57.0074 16.95C56.1104 20.331 56.4784 21.665 58.4564 21.665C60.4114 21.665 61.4694 20.331 62.3664 16.95C63.2634 13.569 62.8954 12.235 60.9404 12.235C58.9624 12.235 57.9044 13.569 57.0074 16.95ZM65.201 25L68.214 13.5H71.664L70.997 16.03H72.814C74.769 16.03 75.62 15.524 75.965 14.19C76.379 12.626 75.735 12.35 73.78 12.35H71.733C68.743 12.35 68.283 12.35 69.203 8.9H74.7C78.081 8.9 80.542 9.981 79.415 14.19C78.863 16.306 77.736 17.686 76.264 18.491L76.839 25C73.849 25 73.205 25 72.906 21.55L72.722 19.457C72.446 19.48 72.193 19.48 71.917 19.48H70.1L68.651 25H65.201ZM80.752 25L84.087 12.35H83.374C80.384 12.35 79.924 12.35 80.844 8.9H92.574L91.654 12.35H87.537L84.202 25H80.752ZM89.7283 25L93.9603 8.9H103.16L102.24 12.35H96.5133L93.1783 25H89.7283ZM95.5243 18.675C96.4443 15.225 96.9043 15.225 99.8943 15.225H101.044L100.124 18.675H95.5243ZM105.873 25.115C102.469 25.115 100.33 22.815 101.871 16.95C103.412 11.085 106.747 8.785 110.151 8.785C113.532 8.785 115.671 11.085 114.13 16.95C112.589 22.815 109.254 25.115 105.873 25.115ZM105.321 16.95C104.424 20.331 104.792 21.665 106.77 21.665C108.725 21.665 109.783 20.331 110.68 16.95C111.577 13.569 111.209 12.235 109.254 12.235C107.276 12.235 106.218 13.569 105.321 16.95ZM113.514 25L117.746 8.9H121.196L117.861 21.55H123.634L122.714 25H113.514ZM123.869 25L128.101 8.9H131.551L127.319 25H123.869ZM134.937 25.115C131.533 25.115 129.394 22.815 130.935 16.95C132.476 11.085 135.811 8.785 139.215 8.785C142.596 8.785 144.735 11.085 143.194 16.95C141.653 22.815 138.318 25.115 134.937 25.115ZM134.385 16.95C133.488 20.331 133.856 21.665 135.834 21.665C137.789 21.665 138.847 20.331 139.744 16.95C140.641 13.569 140.273 12.235 138.318 12.235C136.34 12.235 135.282 13.569 134.385 16.95Z" fill="#E1E1DF"/>
<path d="M142.579 25L146.811 8.9H150.261L146.926 21.55H152.699L151.779 25H142.579ZM157.735 25.115C154.331 25.115 152.192 22.815 153.733 16.95C155.274 11.085 158.609 8.785 162.013 8.785C165.394 8.785 167.533 11.085 165.992 16.95C164.451 22.815 161.116 25.115 157.735 25.115ZM157.183 16.95C156.286 20.331 156.654 21.665 158.632 21.665C160.587 21.665 161.645 20.331 162.542 16.95C163.439 13.569 163.071 12.235 161.116 12.235C159.138 12.235 158.08 13.569 157.183 16.95ZM171.144 25C167.763 25 165.624 22.723 167.142 16.95C168.66 11.177 171.995 8.9 175.376 8.9H179.953L179.033 12.35H174.456C172.501 12.35 171.466 13.661 170.592 16.95C169.718 20.239 170.109 21.55 172.064 21.55H173.605L175.445 14.535H178.895L177.055 21.55L176.135 25H171.144ZM186.58 17.985L184.74 25H181.29L183.13 17.985H182.555C180.485 17.985 179.358 17.847 180.301 14.305L181.727 8.9H185.177L183.682 14.535H187.822L189.317 8.9H192.767L191.341 14.305C190.398 17.847 189.225 17.985 187.155 17.985H186.58Z" fill="#FEDA0A"/>
<path fill-rule="evenodd" clip-rule="evenodd" d="M14 30C21.732 30 28 23.732 28 16C28 8.26801 21.732 2 14 2C9.05408 2 4.70719 4.56473 2.21673 8.43678H16.7356C20.7074 8.43678 22.8967 11.6382 23.0298 14.5928C23.0974 16.0921 22.6623 17.6812 21.5681 18.9162C20.4467 20.1821 18.7816 20.908 16.7356 20.908H9.97701V29.4134C11.2512 29.795 12.6016 30 14 30ZM6.43678 27.7833V19.1379V17.3678H8.2069H16.7356C17.9081 17.3678 18.5562 16.9774 18.9182 16.5687C19.3076 16.1291 19.5262 15.4855 19.4932 14.7521C19.4251 13.2412 18.3961 11.977 16.7356 11.977H0.586621C0.205013 13.2512 0 14.6016 0 16C0 20.9459 2.56473 25.2928 6.43678 27.7833Z" fill="url(#paint0_linear_1_90)"/>
<defs>
<linearGradient id="paint0_linear_1_90" x1="14" y1="2" x2="14" y2="34.5" gradientUnits="userSpaceOnUse">
<stop stop-color="#FEDA0A"/>
<stop offset="1" stop-color="#CCB800"/>
</linearGradient>
</defs>
</svg>
